PathFileType	4	(X/Y/Z)	/Users/niels/Desktop/University/Third Semester/Perception and Action/Exam/Gymnastics Motion Tracking/Code for Gym Tracking/Analyzed Data/Webcam_Backflip/id5_2_trajectory_Sports2D/id5_2_trajectory_Sports2D_px_person00.trc
DataRate	CameraRate	NumFrames	NumMarkers	Units	OrigDataRate	OrigDataStartFrame	OrigNumFrames
29.770992366412216	29.770992366412216	7	22	m	29.770992366412216	98	131
Frame#	Time	Hip			RHip			RKnee			RAnkle			RBigToe			RSmallToe			RHeel			LHip			LKnee			LAnkle			LBigToe			LSmallToe			LHeel			Neck			Head			Nose			RShoulder			RElbow			RWrist			LShoulder			LElbow			LWrist		
		X1	Y1	Z1	X2	Y2	Z2	X3	Y3	Z3	X4	Y4	Z4	X5	Y5	Z5	X6	Y6	Z6	X7	Y7	Z7	X8	Y8	Z8	X9	Y9	Z9	X10	Y10	Z10	X11	Y11	Z11	X12	Y12	Z12	X13	Y13	Z13	X14	Y14	Z14	X15	Y15	Z15	X16	Y16	Z16	X17	Y17	Z17	X18	Y18	Z18	X19	Y19	Z19	X20	Y20	Z20	X21	Y21	Z21	X22	Y22	Z22
98	3.2917948717948713	0.8982078387447303	-0.6274983196932616	0.0	0.8837233426512155	-0.630457099183112	0.0	0.901494232071532	-0.7524398481791319	0.0	0.8927953033186066	-0.8861490400941813	0.0	0.9403077092692338	-0.9022666762019785	0.0	0.9263783061022147	-0.9089526447497691	0.0	0.8799982039745168	-0.9034434931519681	0.0	0.9177704395982376	-0.6259143168292993	0.0	0.9698493268887751	-0.7287811776057472	0.0	0.9267245151470662	-0.8502086103734517	0.0	0.9706435386652903	-0.8676128647743337	0.0	0.967174934552332	-0.8624170873411889	0.0	0.9150760624797281	-0.8699983848212709	0.0	0.8811839383335813	-0.4354308718671934	0.0	0.893295896830141	-0.3474394861887696	0.0	0.9217792539055467	-0.3981063810836307	0.0	0.859642223728164	-0.4617099261147839	0.0	0.91469473731513	-0.5264115851695869	0.0	1.0017217150404851	-0.5385929339843855	0.0	0.8971061126913751	-0.46215685711840354	0.0	0.9452255184266393	-0.5239910216627475	0.0	1.0207230544446702	-0.5346929543196232	0.0
99	3.325384615384615	0.9005354846325776	-0.6287487308094529	0.0	0.887749063437902	-0.6313969137567399	0.0	0.9041045498851703	-0.7530932476752328	0.0	0.893282287639426	-0.8875400461986982	0.0	0.9406026289795636	-0.9041984642042713	0.0	0.9264665616395092	-0.9105298253425762	0.0	0.8795595023128204	-0.9050982568124072	0.0	0.9197320367791277	-0.6269173558468871	0.0	0.9688227452210233	-0.7314821678653012	0.0	0.928044246479781	-0.8546805665338351	0.0	0.9722332218058782	-0.8713163113240083	0.0	0.9685978237187137	-0.8658482022755241	0.0	0.9167724866747304	-0.874923393744147	0.0	0.8830903673350868	-0.4370479421759093	0.0	0.8972032939681275	-0.34947850882309694	0.0	0.9246338822506224	-0.39967686177807493	0.0	0.8658030526264765	-0.4633423575127608	0.0	0.9183446331517855	-0.5324355529018673	0.0	1.0021891270639414	-0.5609642059748831	0.0	0.8949145222449939	-0.46271492019053145	0.0	0.9417006250572287	-0.5289344241056253	0.0	1.015997815084892	-0.5524268897872421	0.0
100	3.3589743589743586	0.9029356409221155	-0.6300305031093296	0.0	0.8920686750781337	-0.6322787983917244	0.0	0.908041618734004	-0.7537307860226273	0.0	0.8940905627513518	-0.88865607405422	0.0	0.9413284246619996	-0.9061470114709743	0.0	0.9271941796296611	-0.9120284478140102	0.0	0.8793805895831495	-0.9066093403079666	0.0	0.9213934338199038	-0.6279635908989998	0.0	0.9661908117226902	-0.7351243801448645	0.0	0.9277105138345324	-0.8596464397274522	0.0	0.972301858309569	-0.8763381059712094	0.0	0.9683963097861339	-0.8707180882999638	0.0	0.9165877074618213	-0.8801403327412531	0.0	0.8850520905976444	-0.4388328741893746	0.0	0.9005503268343782	-0.3516460083205257	0.0	0.9268458669713533	-0.40154523009108306	0.0	0.8722156753174584	-0.4651510555768994	0.0	0.9224255998299037	-0.538276065140144	0.0	1.000546891158841	-0.581475523050723	0.0	0.8924863414519106	-0.4634567404793615	0.0	0.9388257167996092	-0.5346016491287535	0.0	1.0108808114516337	-0.5688383320177723	0.0
101	3.3925641025641022	0.9054039436362584	-0.6314080918443468	0.0	0.8968014117346954	-0.633081823281284	0.0	0.913471619370781	-0.7543239684103721	0.0	0.8953124626586156	-0.8891964137545664	0.0	0.9425265646159537	-0.9078746140156292	0.0	0.9286758769498215	-0.9132385477040368	0.0	0.8796390515491272	-0.9076794610612474	0.0	0.9225685246424598	-0.6291240835435206	0.0	0.9618862744718252	-0.7394678470776438	0.0	0.9263310104502417	-0.8648202374954193	0.0	0.9714601616707806	-0.8820882408388953	0.0	0.9672253481320721	-0.8764912728506882	0.0	0.9150051008603229	-0.8855014938574167	0.0	0.8872408600049501	-0.44075380728879	0.0	0.9036095124397772	-0.35371198298503914	0.0	0.9286645562021493	-0.4036925302640406	0.0	0.8785577039482407	-0.4670832886326251	0.0	0.9264388213426462	-0.5437881597891263	0.0	0.9978146383236568	-0.5985395491922215	0.0	0.8904222151794501	-0.46443889388417164	0.0	0.9364848927771534	-0.5405179940230379	0.0	1.0059843851920216	-0.5822985616964046	0.0
102	3.426153846153846	0.9079206055809392	-0.6329401602974919	0.0	0.9019270129219562	-0.633867230796188	0.0	0.9202978886025611	-0.7549218217580046	0.0	0.8969503018393852	-0.8890001479735613	0.0	0.9442326157762472	-0.9091368491682612	0.0	0.9308745237758602	-0.9139606072896893	0.0	0.880338551378305	-0.9080228913982077	0.0	0.9231340261961607	-0.6304608616087165	0.0	0.9562537653740785	-0.7440986117549783	0.0	0.9243866680148359	-0.8695938533926592	0.0	0.9702379836529235	-0.8876874779599891	0.0	0.9656583558447734	-0.8822639561915802	0.0	0.9123437550506778	-0.8904157122691841	0.0	0.8897902496682255	-0.44267983819523005	0.0	0.9066234237709474	-0.35559958310626233	0.0	0.9304653460813389	-0.40590509374874545	0.0	0.8845328913209605	-0.4690661119261131	0.0	0.9298995635936146	-0.5488132117017827	0.0	0.9953959827517551	-0.6113016618951235	0.0	0.8893656650866664	-0.46568896051951264	0.0	0.9348326850732688	-0.5459478929933839	0.0	1.0021928187650253	-0.5914906922909344	0.0
103	3.4597435897435895	0.9104030238488398	-0.6345118050930431	0.0	0.9071304340582985	-0.6346137356625411	0.0	0.9282295940822276	-0.7555460484509289	0.0	0.8989176581673757	-0.8880092124874926	0.0	0.9463479264664163	-0.9097723947592828	0.0	0.9334931076046846	-0.9140485357213249	0.0	0.8813268395925903	-0.9072905544655446	0.0	0.9230863010860919	-0.6318486555478212	0.0	0.9500301154222193	-0.7484602865495201	0.0	0.9222261337505792	-0.8732647711883124	0.0	0.9690778798539562	-0.8923592844568609	0.0	0.9641330805992101	-0.8871392227433168	0.0	0.9089154803547049	-0.8940809805730519	0.0	0.8927465590233091	-0.44435743389150234	0.0	0.9098056668777872	-0.3573133654391053	0.0	0.9325967262019903	-0.40787222501389164	0.0	0.8899560950776402	-0.47089638671474443	0.0	0.9326568083566946	-0.5531428939346968	0.0	0.9945935802712689	-0.6196788547799484	0.0	0.8896643702019352	-0.4670547679836605	0.0	0.9341788943722913	-0.5501188350281073	0.0	1.0003739251667143	-0.5956919752860779	0.0
104	3.4933333333333327	0.912652386362105	-0.6358451625528764	0.0	0.9118505056154301	-0.6351940094452629	0.0	0.9369336117859922	-0.756047391185296	0.0	0.9010983792764429	-0.8861792382073063	0.0	0.9485913765144947	-0.9097574462371334	0.0	0.9360770160329334	-0.9134538346376193	0.0	0.8824368647775374	-0.9051122496721297	0.0	0.9224566092689979	-0.6330326683584655	0.0	0.9440348229260825	-0.7519382185159496	0.0	0.9200705086509767	-0.8752648372701664	0.0	0.9682267880471226	-0.895621457522868	0.0	0.9628680043081118	-0.8905244237091983	0.0	0.9051286718836075	-0.8958333436020525	0.0	0.8960666412687082	-0.4454994436813271	0.0	0.9133186264217954	-0.3588413616982964	0.0	0.9352247570109072	-0.4093524547572714	0.0	0.8947664072342633	-0.4722491210562784	0.0	0.9349359405413903	-0.5564782868383554	0.0	0.9961378032160407	-0.6240530429095448	0.0	0.8912186882252484	-0.4682143720401459	0.0	0.93470118551592	-0.5524835824797402	0.0	1.0009511781201585	-0.5949405155714648	0.0
